<svg width="9" height="16" viewBox="0 0 9 16" fill="none" xmlns="http://www.w3.org/2000/svg">
<g clip-path="url(#clip0_346_13543)">
<path d="M7.5 0H1.5C0.947812 0 0.5 0.447812 0.5 1V15C0.5 15.5522 0.947812 16 1.5 16H7.5C8.05219 16 8.5 15.5522 8.5 15V1C8.5 0.447812 8.05219 0 7.5 0ZM1.5 15V1H7.5V3H5.75C5.61188 3 5.5 3.11188 5.5 3.25V3.75C5.5 3.88812 5.61188 4 5.75 4H7.5V6H5.75C5.61188 6 5.5 6.11188 5.5 6.25V6.75C5.5 6.88812 5.61188 7 5.75 7H7.5V9H5.75C5.61188 9 5.5 9.11187 5.5 9.25V9.75C5.5 9.88813 5.61188 10 5.75 10H7.5V12H5.75C5.61188 12 5.5 12.1119 5.5 12.25V12.75C5.5 12.8881 5.61188 13 5.75 13H7.5V15H1.5Z" fill="#212121"/>
</g>
<defs>
<clipPath id="clip0_346_13543">
<rect width="8" height="16" fill="white" transform="translate(0.5)"/>
</clipPath>
</defs>
</svg>
