<svg width="216" height="216" viewBox="0 0 216 216" fill="none" xmlns="http://www.w3.org/2000/svg">
<g opacity="0.1" filter="url(#filter0_d_346_13597)">
<path d="M132.762 104C132.762 117.676 121.676 128.762 108 128.762C94.3244 128.762 83.2381 117.676 83.2381 104C83.2381 90.3244 94.3244 79.2381 108 79.2381C121.676 79.2381 132.762 90.3244 132.762 104Z" fill="white"/>
<path fill-rule="evenodd" clip-rule="evenodd" d="M108 208C160.393 208 203.738 169.257 210.947 118.857H150.035C143.917 136.169 127.407 148.571 108 148.571C88.5933 148.571 72.0835 136.169 65.9648 118.857H5.05321C12.2623 169.257 55.6067 208 108 208ZM65.9648 89.1429H5.05321C12.2623 38.7431 55.6067 0 108 0C160.393 0 203.738 38.7431 210.947 89.1429H150.035C143.917 71.8314 127.407 59.4286 108 59.4286C88.5933 59.4286 72.0835 71.8314 65.9648 89.1429ZM132.762 104C132.762 117.676 121.676 128.762 108 128.762C94.3244 128.762 83.2381 117.676 83.2381 104C83.2381 90.3244 94.3244 79.2381 108 79.2381C121.676 79.2381 132.762 90.3244 132.762 104Z" fill="white"/>
<path d="M132.262 104C132.262 117.399 121.399 128.262 108 128.262C94.6005 128.262 83.7381 117.399 83.7381 104C83.7381 90.6005 94.6005 79.7381 108 79.7381C121.399 79.7381 132.262 90.6005 132.262 104ZM108 0.5C159.943 0.5 202.95 38.7644 210.369 88.6429H150.387C144.107 71.3123 127.5 58.9286 108 58.9286C88.4996 58.9286 71.8929 71.3123 65.6127 88.6429H5.63144C13.0503 38.7644 56.057 0.5 108 0.5ZM108 207.5C56.057 207.5 13.0503 169.236 5.63144 119.357H65.6127C71.8929 136.688 88.4996 149.071 108 149.071C127.5 149.071 144.107 136.688 150.387 119.357H210.369C202.95 169.236 159.943 207.5 108 207.5Z" stroke="black"/>
</g>
<defs>
<filter id="filter0_d_346_13597" x="0" y="0" width="216" height="216" filterUnits="userSpaceOnUse" color-interpolation-filters="sRGB">
<feFlood flood-opacity="0" result="BackgroundImageFix"/>
<feColorMatrix in="SourceAlpha" type="matrix" values="0 0 0 0 0 0 0 0 0 0 0 0 0 0 0 0 0 0 127 0" result="hardAlpha"/>
<feOffset dy="4"/>
<feGaussianBlur stdDeviation="2"/>
<feComposite in2="hardAlpha" operator="out"/>
<feColorMatrix type="matrix" values="0 0 0 0 0 0 0 0 0 0 0 0 0 0 0 0 0 0 0.25 0"/>
<feBlend mode="normal" in2="BackgroundImageFix" result="effect1_dropShadow_346_13597"/>
<feBlend mode="normal" in="SourceGraphic" in2="effect1_dropShadow_346_13597" result="shape"/>
</filter>
</defs>
</svg>
