<svg width="17" height="16" viewBox="0 0 17 16" fill="none" xmlns="http://www.w3.org/2000/svg">
<g clip-path="url(#clip0_346_13536)">
<path d="M14.5 2H12.4747C11.5609 0.793125 10.1272 0 8.5 0C6.87281 0 5.43906 0.793125 4.52531 2H2.5C1.39719 2 0.5 2.89719 0.5 4V14C0.5 15.1028 1.39719 16 2.5 16H14.5C15.6028 16 16.5 15.1028 16.5 14V4C16.5 2.89719 15.6028 2 14.5 2ZM8.5 1C10.7091 1 12.5 2.79094 12.5 5C12.5 7.20906 10.7091 9 8.5 9C6.29094 9 4.5 7.20906 4.5 5C4.5 2.79094 6.29094 1 8.5 1ZM15.5 14C15.5 14.5522 15.0522 15 14.5 15H2.5C1.94781 15 1.5 14.5522 1.5 14V4C1.5 3.44781 1.94781 3 2.5 3H3.92375C3.65437 3.61344 3.5 4.28813 3.5 5C3.5 7.75688 5.74312 10 8.5 10C11.2569 10 13.5 7.75688 13.5 5C13.5 4.28813 13.3456 3.61344 13.0763 3H14.5C15.0522 3 15.5 3.44781 15.5 4V14ZM8.5 8C9.32719 8 10 7.32719 10 6.5C10 6.065 9.81094 5.67625 9.51437 5.40219L10.4594 3.19688C10.5681 2.94344 10.4506 2.64938 10.1966 2.54063C9.94406 2.43187 9.64906 2.54906 9.54031 2.80344L8.59469 5.00969C7.48656 4.9375 7 5.89531 7 6.5C7 7.32719 7.67281 8 8.5 8ZM8.5 6C8.77625 6 9 6.22375 9 6.5C9 6.77625 8.77625 7 8.5 7C8.22375 7 8 6.77625 8 6.5C8 6.22375 8.22375 6 8.5 6Z" fill="#212121"/>
</g>
<defs>
<clipPath id="clip0_346_13536">
<rect width="16" height="16" fill="white" transform="translate(0.5)"/>
</clipPath>
</defs>
</svg>
